<svg version="1.0" xmlns="http://www.w3.org/2000/svg" width="166.667" height="166.667" viewBox="0 0 125 125"><path d="M52.8 1C30.5 5 12.2 20 4.5 40.3c-8.7 23.4-3.3 48 14.5 65.8C31.3 118.3 45.1 124 62.5 124c16.2 0 30.7-5.6 42-16.1 8.3-7.8 13.2-15.3 16.9-25.9 5-14.4 4.1-31.1-2.4-45.5-7.4-16.4-22.8-29.4-40.3-34.1C72 .6 58.8-.1 52.8 1zM66 31.5V37H37v51h22v-7.5c0-6.9-.2-7.5-2.1-7.5-1.8 0-2-.5-1.7-5.3l.3-5.2 5.3-.3 5.2-.3V99H26V26h40v5.5zm15 7V51h7V26h11v73H70V73h11v15h7V62H70V26h11v12.5zm-15 7V51H52v33H40V62.7c0-11.8.3-21.7.7-22 .3-.4 6.2-.7 13-.7H66v5.5z"/></svg>