<svg width="40" height="40" fill="none" xmlns="http://www.w3.org/2000/svg"><path fill-rule="evenodd" clip-rule="evenodd" d="M3.395 18.822c10.336-4.503 17.228-7.472 20.677-8.906 9.846-4.095 11.892-4.807 13.225-4.83.293-.006.95.067 1.374.412.359.29.457.684.505.96.047.276.106.905.059 1.396-.534 5.606-2.842 19.21-4.017 25.49-.497 2.657-1.476 3.548-2.423 3.635-2.059.19-3.622-1.36-5.617-2.668-3.12-2.045-4.883-3.319-7.912-5.315-3.5-2.307-1.231-3.574.764-5.646.522-.543 9.593-8.794 9.77-9.543.021-.093.041-.442-.166-.627-.207-.184-.513-.12-.734-.07-.313.07-5.298 3.365-14.955 9.884-1.415.972-2.697 1.445-3.845 1.42-1.266-.027-3.701-.716-5.511-1.304-2.22-.722-3.985-1.103-3.832-2.329.08-.639.96-1.291 2.638-1.959z" fill="#000"/></svg>